<mxfile host="app.diagrams.net" agent="Mozilla/5.0 (Windows NT 10.0; Win64; x64) AppleWebKit/537.36 (KHTML, like Gecko) Chrome/133.0.0.0 Safari/537.36" version="26.0.15">
  <diagram name="Страница — 1" id="I1aUWHedaQbzQfIcLYiB">
    <mxGraphModel dx="875" dy="464" grid="1" gridSize="10" guides="1" tooltips="1" connect="1" arrows="1" fold="1" page="1" pageScale="1" pageWidth="827" pageHeight="1169" math="0" shadow="0">
      <root>
        <mxCell id="0" />
        <mxCell id="1" parent="0" />
        <mxCell id="bBiv7J9bmjRizzosrA4b-1" value="Аренда помещений" style="swimlane;whiteSpace=wrap;html=1;" vertex="1" parent="1">
          <mxGeometry x="270" y="90" width="200" height="440" as="geometry" />
        </mxCell>
        <mxCell id="bBiv7J9bmjRizzosrA4b-3" value="Подтверждение арендных помещений" style="ellipse;whiteSpace=wrap;html=1;" vertex="1" parent="bBiv7J9bmjRizzosrA4b-1">
          <mxGeometry x="24" y="50" width="146" height="70" as="geometry" />
        </mxCell>
        <mxCell id="bBiv7J9bmjRizzosrA4b-4" value="Редактирование арендных помещений" style="ellipse;whiteSpace=wrap;html=1;" vertex="1" parent="bBiv7J9bmjRizzosrA4b-1">
          <mxGeometry x="24" y="130" width="146" height="70" as="geometry" />
        </mxCell>
        <mxCell id="bBiv7J9bmjRizzosrA4b-5" value="Удаление арендных помещений" style="ellipse;whiteSpace=wrap;html=1;" vertex="1" parent="bBiv7J9bmjRizzosrA4b-1">
          <mxGeometry x="24" y="210" width="146" height="70" as="geometry" />
        </mxCell>
        <mxCell id="bBiv7J9bmjRizzosrA4b-6" value="Работа с заявками на аренду помещения" style="ellipse;whiteSpace=wrap;html=1;" vertex="1" parent="bBiv7J9bmjRizzosrA4b-1">
          <mxGeometry x="25.5" y="290" width="143" height="60" as="geometry" />
        </mxCell>
        <mxCell id="bBiv7J9bmjRizzosrA4b-7" value="Работа с заявками на продление аренды помещения" style="ellipse;whiteSpace=wrap;html=1;" vertex="1" parent="bBiv7J9bmjRizzosrA4b-1">
          <mxGeometry x="24" y="360" width="146" height="70" as="geometry" />
        </mxCell>
        <mxCell id="bBiv7J9bmjRizzosrA4b-2" value="Администратор сайта" style="shape=umlActor;verticalLabelPosition=bottom;verticalAlign=top;html=1;outlineConnect=0;" vertex="1" parent="1">
          <mxGeometry x="130" y="270" width="30" height="60" as="geometry" />
        </mxCell>
        <mxCell id="bBiv7J9bmjRizzosrA4b-8" value="" style="endArrow=none;html=1;rounded=0;" edge="1" parent="1">
          <mxGeometry width="50" height="50" relative="1" as="geometry">
            <mxPoint x="160" y="270" as="sourcePoint" />
            <mxPoint x="290" y="190" as="targetPoint" />
          </mxGeometry>
        </mxCell>
        <mxCell id="bBiv7J9bmjRizzosrA4b-9" value="" style="endArrow=none;html=1;rounded=0;" edge="1" parent="1">
          <mxGeometry width="50" height="50" relative="1" as="geometry">
            <mxPoint x="170" y="280" as="sourcePoint" />
            <mxPoint x="280" y="260" as="targetPoint" />
          </mxGeometry>
        </mxCell>
        <mxCell id="bBiv7J9bmjRizzosrA4b-10" value="" style="endArrow=none;html=1;rounded=0;" edge="1" parent="1">
          <mxGeometry width="50" height="50" relative="1" as="geometry">
            <mxPoint x="180" y="290" as="sourcePoint" />
            <mxPoint x="280" y="320" as="targetPoint" />
          </mxGeometry>
        </mxCell>
        <mxCell id="bBiv7J9bmjRizzosrA4b-11" value="" style="endArrow=none;html=1;rounded=0;" edge="1" parent="1">
          <mxGeometry width="50" height="50" relative="1" as="geometry">
            <mxPoint x="180" y="310" as="sourcePoint" />
            <mxPoint x="290" y="400" as="targetPoint" />
          </mxGeometry>
        </mxCell>
        <mxCell id="bBiv7J9bmjRizzosrA4b-12" value="" style="endArrow=none;html=1;rounded=0;" edge="1" parent="1">
          <mxGeometry width="50" height="50" relative="1" as="geometry">
            <mxPoint x="160" y="360" as="sourcePoint" />
            <mxPoint x="280" y="470" as="targetPoint" />
          </mxGeometry>
        </mxCell>
      </root>
    </mxGraphModel>
  </diagram>
</mxfile>
